# Blender 4.1.1
# www.blender.org
mtllib Cloud.mtl
o Cube
v 1.000000 1.000000 -1.000000
v 1.000000 -1.000000 -1.000000
v 1.000000 1.000000 1.000000
v 1.000000 -1.000000 1.000000
v -1.000000 1.000000 -1.000000
v -1.000000 -1.000000 -1.000000
v -1.000000 1.000000 1.000000
v -1.000000 -1.000000 1.000000
vn -0.0000 1.0000 -0.0000
vn -0.0000 -0.0000 1.0000
vn -1.0000 -0.0000 -0.0000
vn -0.0000 -1.0000 -0.0000
vn 1.0000 -0.0000 -0.0000
vn -0.0000 -0.0000 -1.0000
vt 0.625000 0.500000
vt 0.875000 0.500000
vt 0.875000 0.750000
vt 0.625000 0.750000
vt 0.375000 0.750000
vt 0.625000 1.000000
vt 0.375000 1.000000
vt 0.375000 0.000000
vt 0.625000 0.000000
vt 0.625000 0.250000
vt 0.375000 0.250000
vt 0.125000 0.500000
vt 0.375000 0.500000
vt 0.125000 0.750000
s 0
usemtl Material
f 1/1/1 5/2/1 7/3/1 3/4/1
f 4/5/2 3/4/2 7/6/2 8/7/2
f 8/8/3 7/9/3 5/10/3 6/11/3
f 6/12/4 2/13/4 4/5/4 8/14/4
f 2/13/5 1/1/5 3/4/5 4/5/5
f 6/11/6 5/10/6 1/1/6 2/13/6
o Cloud
v 78.799637 103.447151 -60.239483
v 53.163208 132.669907 -39.528248
v 54.152573 80.287125 69.349319
v 40.791580 145.743256 30.896940
v 35.766975 167.234222 -27.435764
v 12.457687 179.840057 -42.179813
v 24.620157 171.310242 8.385570
v 6.458025 163.948288 24.545538
v -29.179529 156.993713 31.812056
v -49.041588 175.475586 -30.435600
v -38.022133 127.352966 54.591827
v -78.106873 141.270065 -68.597717
v -85.154106 22.850763 52.316811
v -95.540787 30.625256 -15.066748
v -61.721565 30.635946 52.794395
v -34.904774 38.175598 -20.527863
v -16.439156 123.126709 -189.744965
v -15.074112 108.765968 -195.867493
v -55.235168 110.027901 -188.915634
v -56.855015 97.095741 63.869148
v -12.490982 90.425323 93.633606
v 3.249763 122.287796 71.356850
v -101.724907 68.034073 105.574966
v -126.487122 85.649361 -20.046856
v -125.302422 38.427906 64.367874
v -148.319061 66.821060 -67.486908
v -150.548569 35.750793 -8.239979
v -94.408669 117.282928 -161.862885
v -90.648666 91.189751 -173.091492
v 118.442482 78.835579 -72.532227
v 141.347244 51.465912 -5.811502
v 139.004562 47.460167 -96.918053
v 150.077133 37.535889 -25.709139
v 147.479294 37.891174 2.155144
v -7.023594 53.753212 179.670425
v -23.880077 44.801144 216.214432
v -3.576405 34.523502 183.418106
v -49.100353 68.090073 175.440109
v 0.222080 63.731113 132.100555
v -56.539246 80.959084 122.988014
v 16.678049 68.590279 110.467842
v 38.527199 58.843849 106.308273
v -109.658272 31.077961 140.557129
v -98.812286 53.834076 155.583893
v -77.642212 16.301140 92.159988
v 62.232430 55.561745 86.494629
v 94.031570 66.642685 31.516827
v -92.172302 108.683350 -19.165783
v -110.503571 117.805099 -92.509727
v -90.252213 127.191490 -119.868462
v -42.666534 172.050613 -123.170570
v 7.193272 157.579224 -90.269768
v 6.533794 153.391632 -122.368149
v 23.431385 126.867584 -107.690994
v 118.854523 71.694901 -153.412781
v 32.824337 22.746832 -66.301239
v -25.920889 9.524525 -58.261658
v 11.259068 29.740355 -150.799194
v -155.561539 45.078629 -49.690742
v -146.262589 68.782227 -123.386642
v -135.749466 93.882935 -94.402313
v -127.824387 101.488380 -134.248917
v -124.306183 87.741707 -163.685654
v 100.710442 80.823242 -38.293457
v 99.256546 90.746803 -66.582870
v 108.828583 66.585709 4.134470
v 122.437332 49.656708 7.602745
v 38.735989 18.015772 -30.885706
v 130.771652 25.638620 -35.661629
v 99.944038 10.323748 35.913887
v 146.959351 25.716541 -1.555061
v 109.680344 24.751377 -113.209091
v 96.837265 57.360237 -185.782303
v 56.838837 58.853760 -211.493912
v -14.013721 62.773941 -218.320496
v 5.915756 98.469513 -202.571747
v 37.484188 79.480049 -206.808502
v 64.847168 79.058456 -206.356628
v 30.404774 110.170959 -143.082825
v 79.953529 93.577087 -144.131348
v 13.284035 105.938644 -185.253510
v 71.916367 91.626488 -193.343201
v -100.130844 34.298641 -42.564827
v -90.639297 16.310869 141.192917
v -28.082989 28.962841 202.797043
v -42.172112 31.942141 240.352020
v -76.970627 21.970131 239.514862
v -68.170181 43.188461 235.948120
v -46.777573 51.499153 235.019806
v -75.799515 46.661598 215.751190
v -117.043945 108.091629 -156.479401
v -96.611328 54.224163 -158.647614
v -25.699940 141.188095 -166.060822
v -21.793648 131.448761 -176.528122
v -65.166901 134.988159 -152.081512
v -35.889145 87.824158 -203.228790
v -52.797775 77.510696 -200.883118
v -107.518524 120.868225 -141.357788
v 3.856693 128.286423 -181.234665
v 16.088581 131.577164 -166.540970
v 6.471066 145.056290 -169.597534
v 104.901779 73.629013 -187.106415
v 79.614952 102.248093 -107.911079
v 35.284843 53.089027 137.729538
v -95.171936 27.102623 179.107651
v -85.872086 52.220207 186.468521
v 44.613449 19.159866 93.708115
v -12.449379 21.414825 163.216827
v -52.596432 -1.212829 137.554367
v -62.381714 12.374973 186.397751
v -80.465790 72.591949 152.933167
v -10.327461 20.029686 186.706970
v -89.931412 30.310997 209.491699
v 82.092819 76.412506 -202.341827
v 100.964981 49.912998 21.804365
vn 0.5975 0.7990 0.0685
vn 0.8322 0.5423 -0.1156
vn 0.5909 0.6574 0.4677
vn 0.5908 0.6574 0.4677
vn 0.6650 0.6050 0.4380
vn 0.7366 0.6674 -0.1099
vn 0.2318 0.9705 -0.0658
vn 0.3562 0.8880 0.2908
vn 0.3562 0.8880 0.2909
vn 0.0296 0.8814 0.4715
vn -0.2964 0.7667 0.5695
vn -0.4820 0.8489 0.2168
vn -0.5778 0.5743 0.5799
vn -0.6997 0.7076 0.0985
vn -0.0344 -0.9906 -0.1325
vn -0.0040 -0.9969 -0.0792
vn 0.0873 -0.9849 -0.1494
vn 0.0873 -0.9849 -0.1493
vn -0.0040 -0.9969 -0.0791
vn -0.0791 -0.9836 0.1619
vn 0.0544 0.5756 -0.8159
vn 0.0244 0.5123 -0.8584
vn -0.3108 0.5314 -0.7880
vn -0.4362 0.8126 0.3866
vn 0.0400 0.7392 0.6723
vn -0.5778 0.5743 0.5800
vn 0.1089 0.6378 0.7624
vn -0.6571 0.7222 0.2161
vn -0.7593 0.6126 0.2194
vn -0.7986 -0.5917 0.1105
vn -0.8922 0.4384 0.1087
vn -0.8743 -0.4666 0.1341
vn -0.7986 -0.5917 0.1106
vn -0.4072 0.6384 -0.6532
vn -0.3109 0.5314 -0.7880
vn -0.4302 0.1698 -0.8866
vn 0.6121 0.7899 0.0364
vn 0.7041 0.6493 0.2876
vn 0.9604 -0.1309 -0.2461
vn 0.9603 -0.1309 -0.2462
vn 0.9852 -0.1452 -0.0916
vn 0.7817 0.2625 0.5658
vn 0.9852 -0.1452 -0.0915
vn 0.5850 0.6459 0.4905
vn 0.7816 0.2691 0.5628
vn 0.8230 -0.2770 0.4958
vn 0.0714 0.9542 0.2906
vn 0.2367 0.9295 0.2828
vn -0.0007 0.9567 0.2910
vn 0.3091 0.8403 0.4453
vn -0.0008 0.9567 0.2910
vn 0.6984 0.4905 0.5212
vn -0.7985 -0.5917 0.1106
vn -0.9617 -0.1532 0.2273
vn -0.8443 0.4436 0.3006
vn -0.1418 -0.9672 -0.2106
vn 0.7557 0.1806 0.6295
vn 0.7858 0.3985 0.4730
vn 0.5909 0.6573 0.4677
vn -0.5388 0.7989 0.2674
vn -0.6113 0.7867 0.0859
vn -0.4234 0.9042 -0.0572
vn 0.2317 0.9705 -0.0658
vn -0.1280 0.9359 -0.3281
vn 0.6545 0.6899 -0.3092
vn -0.1280 0.9359 -0.3282
vn 0.6545 0.6900 -0.3091
vn 0.6835 0.7210 -0.1140
vn 0.7366 0.6673 -0.1099
vn 0.8322 0.5423 -0.1157
vn 0.6546 0.6899 -0.3092
vn 0.6979 0.6914 -0.1870
vn 0.8231 0.5101 -0.2496
vn 0.0819 -0.9888 -0.1246
vn -0.0783 -0.9941 0.0750
vn -0.0178 -0.9583 -0.2851
vn -0.8712 -0.4713 -0.1372
vn -0.8922 0.4384 0.1086
vn -0.9402 -0.1684 -0.2961
vn -0.8126 0.5810 0.0455
vn -0.9402 -0.1683 -0.2962
vn -0.8012 0.5825 -0.1369
vn -0.8012 0.5825 -0.1370
vn -0.6886 0.0794 -0.7208
vn -0.9402 -0.1683 -0.2961
vn 0.5974 0.7990 0.0685
vn 0.5909 0.6574 0.4676
vn 0.5270 0.8185 0.2288
vn 0.5500 0.8267 0.1184
vn 0.5783 0.6936 0.4296
vn 0.5269 0.8185 0.2288
vn 0.4573 0.4654 0.7578
vn 0.7816 0.2625 0.5658
vn -0.0152 -0.9992 0.0381
vn 0.3896 -0.9059 -0.1662
vn 0.4619 -0.7181 0.5206
vn 0.7679 -0.6274 0.1292
vn 0.0818 -0.9888 -0.1245
vn 0.2603 -0.9347 -0.2420
vn 0.6416 -0.5062 -0.5763
vn 0.2603 -0.9347 -0.2421
vn 0.2181 -0.4129 -0.8843
vn -0.0177 -0.9583 -0.2852
vn 0.2182 -0.4129 -0.8843
vn -0.1574 -0.0647 -0.9854
vn 0.1801 0.6410 -0.7461
vn 0.1338 0.4885 -0.8623
vn 0.2182 -0.4130 -0.8842
vn -0.1573 -0.0647 -0.9854
vn 0.1339 0.4885 -0.8622
vn 0.1304 0.4877 -0.8632
vn 0.6061 0.7486 -0.2689
vn 0.4056 0.9021 -0.1477
vn 0.3921 0.6827 -0.6166
vn 0.3922 0.6826 -0.6166
vn 0.3559 0.8329 -0.4238
vn -0.4361 0.8126 0.3866
vn -0.5387 0.7989 0.2674
vn -0.6570 0.7222 0.2161
vn -0.7593 0.6127 0.2194
vn -0.0041 -0.9969 -0.0792
vn -0.1773 -0.9808 -0.0816
vn -0.8743 -0.4665 0.1340
vn -0.8713 -0.4712 -0.1372
vn -0.9617 -0.1531 0.2272
vn -0.7985 -0.5917 0.1105
vn -0.4829 -0.8736 0.0602
vn -0.4828 -0.8736 0.0602
vn -0.1419 -0.9672 -0.2106
vn -0.0345 -0.9906 -0.1325
vn 0.4086 -0.8221 0.3964
vn 0.4434 -0.1847 0.8771
vn -0.5043 -0.5046 0.7007
vn -0.5043 -0.5047 0.7007
vn 0.4433 -0.1847 0.8771
vn -0.3823 0.5157 0.7667
vn 0.0917 0.8006 0.5922
vn -0.3824 0.5157 0.7667
vn -0.3824 0.5156 0.7667
vn 0.0918 0.8005 0.5923
vn -0.5859 0.7271 0.3579
vn -0.8126 0.5811 0.0455
vn -0.5777 0.5831 -0.5712
vn -0.4195 -0.7184 -0.5549
vn 0.8322 0.5422 -0.1156
vn 0.7366 0.6673 -0.1098
vn 0.6650 0.6049 0.4380
vn 0.6650 0.6050 0.4379
vn -0.4362 0.8125 0.3866
vn -0.4362 0.8125 0.3867
vn -0.2521 0.6989 -0.6693
vn -0.1895 0.7215 -0.6660
vn -0.4140 0.8049 -0.4251
vn -0.4072 0.6385 -0.6531
vn -0.3108 0.5315 -0.7880
vn 0.0545 0.5756 -0.8159
vn 0.1088 0.6379 0.7624
vn 0.1089 0.6379 0.7624
vn 0.0296 0.8813 0.4715
vn 0.0244 0.5124 -0.8584
vn -0.2912 0.3664 -0.8837
vn -0.4953 0.0392 -0.8678
vn -0.2912 0.3663 -0.8837
vn -0.4953 0.0393 -0.8678
vn -0.4233 0.9042 -0.0571
vn -0.5010 0.8507 -0.1591
vn -0.5010 0.8507 -0.1592
vn -0.4140 0.8050 -0.4250
vn 0.3447 0.5350 -0.7714
vn 0.8366 0.4354 -0.3325
vn -0.5011 0.8507 -0.1592
vn -0.4303 0.1698 -0.8866
vn -0.6886 0.0795 -0.7208
vn -0.4196 -0.7183 -0.5549
vn -0.0791 -0.9836 0.1620
vn -0.0151 -0.9992 0.0381
vn -0.8712 -0.4713 -0.1371
vn 0.3897 -0.9058 -0.1662
vn 0.2604 -0.9347 -0.2420
vn 0.2840 0.7532 -0.5933
vn 0.3447 0.5349 -0.7714
vn 0.6416 -0.5062 -0.5762
vn 0.8231 0.5100 -0.2496
vn 0.7433 0.2481 -0.6212
vn 0.0818 -0.9888 -0.1246
vn 0.5500 0.8268 0.1184
vn 0.4661 0.8751 -0.1303
vn 0.4056 0.9020 -0.1477
vn 0.6120 0.7900 0.0363
vn 0.6121 0.7900 0.0363
vn -0.8743 -0.4666 0.1340
vn -0.7986 -0.5916 0.1105
vn -0.6114 0.7867 0.0859
vn 0.6834 0.7211 -0.1140
vn -0.6997 0.7076 0.0984
vn -0.1279 0.9359 -0.3282
vn -0.6998 0.7076 0.0984
vn -0.4140 0.8049 -0.4250
vn -0.4234 0.9042 -0.0571
vn 0.8366 0.4354 -0.3324
vn 0.6979 0.6914 -0.1869
vn 0.6061 0.7485 -0.2689
vn 0.6978 0.6914 -0.1870
vn 0.7369 0.4880 0.4677
vn 0.0714 0.9542 0.2907
vn 0.5849 0.6459 0.4905
vn 0.0714 0.9541 0.2907
vn 0.7815 0.2691 0.5628
vn 0.0917 0.8005 0.5922
vn 0.7815 0.2691 0.5629
vn -0.9617 -0.1531 0.2273
vn -0.8795 -0.3776 0.2896
vn -0.6878 0.6341 0.3534
vn 0.5499 -0.7788 0.3018
vn 0.4280 -0.8680 0.2517
vn -0.0371 -0.9973 0.0639
vn -0.1379 -0.9665 0.2167
vn 0.5500 -0.7787 0.3018
vn 0.4281 -0.8680 0.2517
vn 0.7369 0.4881 0.4676
vn 0.8230 -0.2770 0.4959
vn 0.7369 0.4881 0.4677
vn -0.4829 -0.8736 0.0603
vn -0.8795 -0.3776 0.2897
vn -0.8443 0.4437 0.3006
vn -0.3961 0.8759 0.2755
vn 0.4433 -0.1846 0.8772
vn 0.7815 0.2692 0.5628
vn 0.5578 -0.7579 0.3384
vn 0.4087 -0.8221 0.3964
vn 0.0713 0.9542 0.2907
vn -0.5859 0.7271 0.3580
vn -0.6877 0.6341 0.3535
vn -0.3961 0.8759 0.2756
vn 0.4433 -0.1847 0.8772
vn -0.9447 -0.1132 0.3076
vn -0.5043 -0.5046 0.7008
vn -0.5859 0.7270 0.3580
vn 0.4086 -0.8221 0.3963
vn 0.4280 -0.8680 0.2518
vn 0.5577 -0.7579 0.3385
vn 0.8230 -0.2771 0.4959
vn -0.9447 -0.1132 0.3077
vn -0.1379 -0.9665 0.2166
vn -0.4820 0.8490 0.2168
vn -0.2964 0.7668 0.5694
vn -0.0792 -0.9836 0.1619
vn 0.4619 -0.7181 0.5205
vn -0.0792 -0.9836 0.1620
vn 0.6650 0.6049 0.4381
vn -0.4361 0.8126 0.3867
vn -0.1418 -0.9672 -0.2107
vn 0.6545 0.6899 -0.3091
vn 0.2840 0.7533 -0.5933
vn -0.1774 -0.9808 -0.0816
vn -0.0784 -0.9941 0.0750
vn -0.1574 -0.0648 -0.9854
vn -0.4195 -0.7184 -0.5550
vn 0.2181 -0.4130 -0.8843
vn 0.1305 0.4877 -0.8632
vn 0.4475 0.1803 -0.8759
vn 0.4476 0.1802 -0.8759
vn 0.6416 -0.5061 -0.5764
vn 0.2181 -0.4129 -0.8842
vn 0.4475 0.1802 -0.8759
vn 0.7434 0.2482 -0.6211
vn 0.8231 0.5100 -0.2497
vn 0.3560 0.8329 -0.4238
vn 0.7434 0.2481 -0.6212
vn -0.0372 -0.9973 0.0639
vn 0.0297 0.8814 0.4715
vn 0.6978 0.6915 -0.1869
vn -0.6878 0.6341 0.3535
vn -0.4828 -0.8736 0.0603
vn -0.1380 -0.9664 0.2166
vn -0.8795 -0.3775 0.2897
vn -0.9448 -0.1132 0.3076
vn -0.3960 0.8759 0.2756
vn -0.6877 0.6341 0.3534
vn 0.7370 0.4880 0.4677
vn 0.7370 0.4881 0.4676
vn 0.5499 -0.7788 0.3017
vn 0.7557 0.1805 0.6295
vn 0.6985 0.4905 0.5211
vn 0.5500 -0.7788 0.3018
vn 0.4618 -0.7181 0.5206
vn 0.7487 0.2293 0.6220
vn 0.7558 0.1805 0.6295
vn 0.5500 -0.7788 0.3017
vn 0.4573 0.4653 0.7578
vn 0.7486 0.2293 0.6221
vn 0.7817 0.2624 0.5658
vn 0.4573 0.4654 0.7579
vn 0.9604 -0.1308 -0.2461
vn 0.7486 0.2293 0.6220
vn 0.7858 0.3984 0.4730
vn 0.5782 0.6936 0.4296
vn 0.7486 0.2294 0.6221
vn 0.6121 0.7900 0.0364
vn 0.5269 0.8185 0.2287
vn 0.7040 0.6493 0.2876
vn -0.1894 0.7214 -0.6661
vn -0.1894 0.7215 -0.6660
vn 0.3447 0.5350 -0.7713
vn 0.0545 0.5757 -0.8159
vn 0.0245 0.5124 -0.8584
vn 0.1800 0.6410 -0.7461
vn 0.1801 0.6411 -0.7460
vn 0.1338 0.4885 -0.8622
vn 0.3921 0.6826 -0.6166
vn 0.3559 0.8328 -0.4239
vn 0.1304 0.4878 -0.8632
vn 0.3560 0.8328 -0.4239
vn 0.5782 0.6936 0.4297
vt 0.607681 0.500310
vt 0.584649 0.569224
vt 0.369588 0.570639
vt 0.484936 0.627675
vt 0.573548 0.624390
vt 0.599322 0.653665
vt 0.528322 0.648925
vt 0.505593 0.672177
vt 0.494034 0.717410
vt 0.594183 0.730701
vt 0.440367 0.745484
vt 0.651731 0.795720
vt 0.433221 0.215804
vt 0.360771 0.275111
vt 0.415060 0.187744
vt 0.313945 0.210060
vt 0.851892 0.663211
vt 0.878575 0.655780
vt 0.871790 0.731757
vt 0.402020 0.795755
vt 0.337185 0.708762
vt 0.409813 0.680231
vt 0.309188 0.891875
vt 0.562575 0.920625
vt 0.382639 0.977959
vt 0.654638 0.974747
vt 0.533035 0.992171
vt 0.822888 0.805198
vt 0.877412 0.812824
vt 0.619416 0.414634
vt 0.480875 0.378129
vt 0.657907 0.334944
vt 0.512085 0.340818
vt 0.469088 0.364330
vt 0.146405 0.713369
vt 0.084241 0.753025
vt 0.115393 0.690366
vt 0.168351 0.791089
vt 0.241294 0.688908
vt 0.276593 0.797940
vt 0.282344 0.649498
vt 0.276682 0.598087
vt 0.219101 0.948775
vt 0.202122 0.891783
vt 0.475489 0.176856
vt 0.314678 0.545859
vt 0.422177 0.481126
vt 0.559996 0.845051
vt 0.699718 0.853622
vt 0.743189 0.806895
vt 0.723475 0.710723
vt 0.675031 0.640156
vt 0.725532 0.639108
vt 0.707174 0.589744
vt 0.776926 0.398257
vt 0.207810 0.166767
vt 0.256956 0.226016
vt 0.128226 0.253950
vt 0.360171 0.363844
vt 0.347765 0.399689
vt 0.276462 0.419712
vt 0.708707 0.915093
vt 0.776343 0.961835
vt 0.783276 0.881273
vt 0.850659 0.880011
vt 0.555789 0.455678
vt 0.613454 0.457370
vt 0.469446 0.445987
vt 0.452257 0.404491
vt 0.245390 0.134449
vt 0.170343 0.033451
vt 0.277613 0.015355
vt 0.373422 0.392302
vt 0.501596 0.301505
vt 0.466012 0.344169
vt 0.100204 0.115923
vt 0.015459 0.184996
vt 0.016611 0.250791
vt 0.986204 0.639342
vt 0.895189 0.610093
vt 0.913779 0.534679
vt 0.945269 0.474877
vt 0.895767 0.482380
vt 0.771598 0.569340
vt 0.765183 0.477590
vt 0.855349 0.597393
vt 0.858638 0.482319
vt 0.404801 0.335024
vt 0.330245 0.300049
vt 0.562074 0.189177
vt 0.476043 0.260882
vt 0.545717 0.158941
vt 0.058428 0.723640
vt 0.056624 0.785795
vt 0.020495 0.824918
vt 0.059193 0.817407
vt 0.070693 0.793029
vt 0.088112 0.839643
vt 0.819501 0.849101
vt 0.197883 0.387360
vt 0.803061 0.685371
vt 0.827002 0.676850
vt 0.790395 0.753789
vt 0.925208 0.695035
vt 0.935951 0.865426
vt 0.941575 0.735332
vt 0.786633 0.830037
vt 0.828546 0.633882
vt 0.801398 0.617363
vt 0.214286 0.444993
vt 0.082834 0.064487
vt 0.798960 0.639900
vt 0.864574 0.385584
vt 0.842071 0.416374
vt 0.695911 0.490020
vt 0.219615 0.626752
vt 0.133482 0.919991
vt 0.141225 0.862932
vt 0.385203 0.035991
vt 0.512279 0.040875
vt 0.512254 0.113031
vt 0.579009 0.088966
vt 0.236890 0.517265
vt 0.093969 0.641340
vt 0.599957 0.138988
vt 0.215966 0.844530
vt 0.090398 0.685929
vt 0.074978 0.881127
vt 0.574649 0.028412
vt 0.634664 0.108429
vt 0.657536 0.064159
vt 0.063302 0.340727
vt 0.876856 0.451708
vt 0.418034 0.442987
vt 0.107051 0.385740
s 0
usemtl Siatka_Siatka_Siatka_Siatka_Siatka_Siatka__mtl_cloud_small41_0
f 9/15/7 10/16/8 11/17/9
f 11/17/10 10/16/8 12/18/11
f 13/19/12 14/20/13 15/21/14
f 15/21/15 14/20/13 16/22/16
f 17/23/17 18/24/18 19/25/19
f 19/25/19 18/24/18 20/26/20
f 21/27/21 22/28/22 23/29/23
f 23/29/24 22/28/25 24/30/26
f 25/31/27 26/32/28 27/33/29
f 28/34/30 29/35/31 19/25/32
f 19/25/32 29/35/31 30/36/33
f 31/37/34 32/38/35 33/39/36
f 34/40/37 35/41/38 32/38/35
f 32/38/35 35/41/38 33/39/39
f 36/42/40 27/33/41 37/43/42
f 38/44/43 39/45/44 40/46/45
f 40/46/46 39/45/44 41/47/47
f 39/45/44 42/48/48 41/47/49
f 43/49/50 44/50/51 45/51/52
f 46/52/53 47/53/54 48/54/55
f 48/54/55 47/53/54 49/55/56
f 49/55/56 29/35/31 48/54/57
f 11/17/10 29/35/31 49/55/56
f 49/55/56 50/56/58 11/17/9
f 33/39/59 51/57/60 31/37/34
f 31/37/34 51/57/60 52/58/61
f 21/27/21 23/29/23 53/59/62
f 54/60/63 55/61/64 11/17/65
f 50/56/58 54/60/63 11/17/65
f 56/62/66 20/26/20 57/63/67
f 57/63/67 20/26/20 58/64/68
f 18/24/18 14/20/69 59/65/70
f 14/20/13 60/66/71 59/65/72
f 60/66/73 61/67/74 59/65/72
f 13/19/75 10/16/76 60/66/77
f 10/16/8 62/68/78 60/66/71
f 38/44/43 40/46/45 63/69/79
f 64/70/80 65/71/81 66/72/82
f 67/73/83 34/74/84 68/75/85
f 34/40/84 69/76/86 68/77/87
f 69/76/86 70/78/88 68/77/85
f 70/78/89 71/79/90 68/77/91
f 9/15/92 11/17/93 72/80/94
f 72/80/94 73/81/95 9/15/92
f 74/82/96 72/80/97 11/17/10
f 11/17/93 55/61/64 74/82/96
f 39/45/44 75/83/98 42/48/99
f 76/84/100 77/85/101 78/86/102
f 78/87/102 77/88/101 79/89/103
f 64/70/104 66/72/82 80/90/105
f 81/91/106 80/90/107 82/92/108
f 66/72/109 82/92/110 80/90/107
f 83/93/111 84/94/112 85/95/113
f 85/95/113 82/96/114 83/93/115
f 82/96/114 85/95/116 86/97/117
f 87/98/118 88/99/119 89/100/120
f 89/100/121 88/99/119 90/101/122
f 28/34/123 56/62/124 31/37/125
f 31/37/125 56/62/124 32/38/126
f 22/28/127 35/102/38 91/103/128
f 91/103/128 35/102/129 67/73/130
f 51/104/131 33/105/132 92/106/133
f 92/106/134 33/105/39 53/59/135
f 21/27/136 53/59/135 33/105/36
f 93/107/137 94/108/138 95/109/139
f 95/109/140 94/108/141 96/110/142
f 94/108/141 97/111/143 96/110/144
f 96/110/145 97/111/146 98/112/147
f 56/62/124 57/63/67 32/38/126
f 32/38/35 57/63/67 69/76/148
f 36/42/40 37/43/42 99/113/149
f 99/113/149 37/43/42 71/79/90
f 100/114/150 91/103/128 68/75/87
f 68/75/85 91/103/128 67/73/83
f 10/16/151 13/19/152 12/18/153
f 12/18/154 13/19/152 15/21/15
f 19/25/19 20/26/20 28/34/155
f 28/34/156 20/26/20 56/62/124
f 101/115/157 102/116/158 103/117/159
f 36/42/160 103/117/159 27/33/161
f 102/116/158 25/31/162 27/33/161
f 27/33/161 103/117/159 102/116/158
f 19/25/32 30/36/163 17/23/17
f 17/23/17 30/36/164 16/22/165
f 26/32/166 104/118/167 27/33/29
f 100/119/150 37/43/42 105/120/168
f 37/43/42 27/33/41 104/118/169
f 104/118/167 105/120/170 37/43/42
f 58/64/171 103/117/159 106/121/172
f 106/121/173 103/117/174 36/42/160
f 107/122/175 108/123/176 89/100/121
f 89/100/120 108/123/176 87/98/118
f 71/79/90 70/78/89 99/113/149
f 70/78/89 106/121/177 99/113/149
f 99/113/149 106/121/173 36/42/160
f 37/43/178 100/119/150 71/79/179
f 71/124/90 100/114/180 68/75/85
f 24/30/181 65/71/81 76/84/182
f 76/84/182 65/71/81 64/70/80
f 35/102/38 34/74/37 67/73/183
f 40/125/45 77/85/184 80/90/185
f 57/63/67 58/64/171 106/121/172
f 109/126/186 108/123/176 107/122/187
f 80/90/107 81/91/188 40/125/45
f 40/46/45 81/127/106 63/69/79
f 63/69/189 81/127/106 110/128/190
f 69/76/86 34/40/84 32/38/35
f 77/85/101 76/84/182 80/90/105
f 80/90/105 76/84/100 64/70/191
f 9/15/92 73/81/192 111/129/193
f 63/69/189 88/99/194 38/44/195
f 88/99/194 111/129/193 38/44/196
f 35/102/197 22/28/25 33/105/198
f 33/105/36 22/28/127 21/27/136
f 69/76/148 57/63/199 70/78/88
f 70/78/88 57/63/199 106/121/172
f 103/117/159 59/65/72 101/115/157
f 109/126/186 59/65/72 61/67/200
f 18/24/18 59/65/72 20/26/201
f 59/65/202 103/117/159 20/26/203
f 103/117/204 58/64/205 20/26/201
f 108/123/206 62/68/207 87/98/208
f 87/98/118 62/68/209 111/129/193
f 112/130/210 46/52/211 43/49/212
f 43/49/50 46/52/213 44/50/214
f 46/52/211 97/111/215 44/50/216
f 51/57/217 113/131/218 52/58/61
f 52/58/61 113/131/218 114/132/219
f 115/133/220 116/134/221 117/135/222
f 117/135/222 116/134/221 118/136/223
f 115/137/224 112/130/210 116/138/225
f 116/138/225 112/130/226 45/51/227
f 112/130/228 43/49/50 45/51/227
f 51/104/131 92/106/229 113/139/230
f 52/58/231 119/140/232 31/37/34
f 119/140/232 48/54/57 31/37/34
f 48/54/57 28/34/123 31/37/125
f 94/108/233 93/107/137 44/50/234
f 120/141/235 45/51/227 93/107/137
f 45/51/227 44/50/51 93/107/236
f 97/111/146 46/52/237 98/112/147
f 98/112/238 46/52/237 114/132/239
f 46/52/237 119/140/240 114/132/239
f 44/50/214 97/111/215 94/108/241
f 121/142/242 95/109/243 98/112/244
f 98/112/244 95/109/139 96/110/144
f 118/136/223 116/134/221 93/143/137
f 93/107/245 116/138/246 120/141/247
f 116/138/246 45/51/248 120/141/247
f 121/144/249 118/136/250 95/145/139
f 95/145/139 118/136/250 93/143/137
f 14/20/13 18/24/18 16/22/16
f 16/22/16 18/24/251 17/23/252
f 23/29/24 24/30/253 78/86/102
f 78/86/254 24/30/255 76/84/100
f 29/35/31 11/17/10 30/36/164
f 30/36/164 11/17/9 12/18/256
f 48/54/57 29/35/31 28/34/257
f 117/135/222 53/59/258 115/133/224
f 53/59/258 23/29/24 115/133/220
f 23/29/24 78/86/102 115/133/224
f 60/66/71 14/20/13 13/19/12
f 60/66/259 62/68/78 61/67/74
f 109/126/260 61/67/74 108/123/206
f 62/68/78 108/123/176 61/67/74
f 91/103/261 100/114/150 65/71/262
f 83/146/263 66/72/82 100/114/150
f 66/72/82 65/71/81 100/114/264
f 82/92/110 66/72/82 83/146/263
f 82/96/265 86/97/266 122/147/267
f 122/147/268 81/127/269 82/96/270
f 81/127/106 122/147/271 110/128/272
f 88/99/194 63/69/273 90/101/274
f 90/101/274 63/69/79 110/128/275
f 92/106/133 53/59/135 117/135/276
f 30/36/164 12/18/11 16/22/165
f 16/22/277 12/18/153 15/21/15
f 65/71/262 24/30/255 91/103/128
f 91/103/128 24/30/181 22/28/22
f 111/129/193 88/99/119 87/98/118
f 111/129/193 62/68/278 9/15/92
f 9/15/7 62/68/209 10/16/8
f 98/112/244 114/132/239 121/142/242
f 114/132/279 113/131/218 121/142/249
f 117/135/276 118/136/250 92/106/280
f 92/106/229 118/136/281 113/139/282
f 113/139/218 118/136/281 121/144/283
f 48/54/57 119/140/284 46/52/237
f 114/132/285 119/140/240 52/58/231
f 46/52/211 112/130/286 47/53/54
f 49/55/56 47/53/54 112/130/287
f 50/56/58 49/55/56 112/130/228
f 115/137/288 54/60/289 50/56/290
f 50/56/58 112/130/228 115/137/291
f 78/87/292 123/148/293 54/60/294
f 54/60/289 115/137/295 78/87/254
f 75/83/296 123/148/297 78/87/254
f 42/48/298 75/83/299 78/87/102
f 78/87/292 79/89/103 42/48/48
f 41/47/49 42/48/99 79/89/103
f 79/89/103 77/88/184 41/47/49
f 40/46/300 41/47/47 77/88/184
f 54/60/294 123/148/301 55/61/302
f 74/82/303 55/61/302 123/148/297
f 123/148/304 75/83/98 74/82/96
f 38/44/305 72/80/306 74/82/96
f 74/82/96 39/45/307 38/44/305
f 73/81/95 72/80/94 38/44/43
f 111/129/193 73/81/192 38/44/196
f 101/115/157 59/65/72 109/126/260
f 109/126/186 107/122/187 102/116/308
f 102/116/309 101/115/157 109/126/186
f 107/122/310 25/31/311 102/116/309
f 89/100/121 26/32/312 25/31/162
f 25/31/162 107/122/187 89/100/121
f 26/32/28 84/94/313 83/93/111
f 89/100/120 84/94/314 26/32/166
f 85/95/116 84/94/314 89/100/120
f 86/97/117 85/95/315 89/100/120
f 89/100/316 90/101/317 86/97/318
f 122/147/271 86/97/266 90/101/319
f 110/128/275 122/147/268 90/101/319
f 26/32/166 83/93/263 104/118/167
f 105/120/170 104/118/169 83/93/111
f 100/114/180 105/149/168 83/146/111
f 74/82/320 75/83/98 39/45/44
