# Blender 4.1.1
# www.blender.org
mtllib cloud.mtl
o Cube
v 1.000000 1.000000 -1.000000
v 1.000000 -1.000000 -1.000000
v 1.000000 1.000000 1.000000
v 1.000000 -1.000000 1.000000
v -1.000000 1.000000 -1.000000
v -1.000000 -1.000000 -1.000000
v -1.000000 1.000000 1.000000
v -1.000000 -1.000000 1.000000
vn -0.0000 1.0000 -0.0000
vn -0.0000 -0.0000 1.0000
vn -1.0000 -0.0000 -0.0000
vn -0.0000 -1.0000 -0.0000
vn 1.0000 -0.0000 -0.0000
vn -0.0000 -0.0000 -1.0000
vt 0.625000 0.500000
vt 0.875000 0.500000
vt 0.875000 0.750000
vt 0.625000 0.750000
vt 0.375000 0.750000
vt 0.625000 1.000000
vt 0.375000 1.000000
vt 0.375000 0.000000
vt 0.625000 0.000000
vt 0.625000 0.250000
vt 0.375000 0.250000
vt 0.125000 0.500000
vt 0.375000 0.500000
vt 0.125000 0.750000
s 0
usemtl Material
f 1/1/1 5/2/1 7/3/1 3/4/1
f 4/5/2 3/4/2 7/6/2 8/7/2
f 8/8/3 7/9/3 5/10/3 6/11/3
f 6/12/4 2/13/4 4/5/4 8/14/4
f 2/13/5 1/1/5 3/4/5 4/5/5
f 6/11/6 5/10/6 1/1/6 2/13/6
o Cloud
v 91.174515 92.843689 -60.056221
v 71.757706 124.551605 -36.439568
v 70.080383 66.604912 69.572823
v 65.458694 135.421280 35.155464
v 60.863777 160.701950 -21.673983
v 39.148415 177.666489 -34.333557
v 52.460014 164.465683 14.921709
v 34.237457 159.182648 31.810577
v -1.614774 157.582275 40.935272
v -21.526793 182.477188 -19.019760
v -13.908861 128.483948 62.794495
v -57.751732 155.541092 -56.879436
v -77.400520 33.101585 58.513855
v -89.985847 46.226784 -7.654182
v -53.024849 37.022957 57.905327
v -29.308496 44.338161 -16.500069
v -6.418518 134.705948 -182.336777
v -7.727921 120.680374 -189.203247
v -46.723137 127.915619 -179.724014
v -36.870049 101.129814 71.782341
v 7.357605 85.818924 98.392044
v 26.835541 115.982071 76.711685
v -83.555244 77.259277 114.770157
v -111.831505 105.663254 -8.103661
v -113.790947 54.156357 73.751801
v -138.935242 93.258675 -54.935406
v -142.990875 59.637558 2.802830
v -82.697418 139.764191 -149.983276
v -83.821175 114.082458 -162.642609
v 125.590408 62.978043 -75.930290
v 147.300369 28.586071 -12.123934
v 139.461685 30.162830 -102.997513
v 152.579529 14.593281 -33.159740
v 151.570297 13.780566 -5.202381
v 11.413906 43.937542 182.097290
v -4.687569 35.726776 219.152252
v 11.896206 24.223579 184.712112
v -27.949966 64.997200 181.164276
v 17.620928 55.310875 134.694000
v -36.005409 81.830780 129.940155
v 33.463673 58.707756 112.336601
v 53.190670 45.862869 106.375488
v -95.484680 40.115791 148.392990
v -80.306213 59.971531 163.776215
v -68.925011 23.198288 97.461197
v 74.954979 39.979889 84.998016
v 105.137192 48.956051 28.739735
v -74.241272 122.861969 -8.264450
v -94.755783 138.915192 -79.818802
v -74.746712 146.494858 -107.906296
v -20.768764 183.332626 -112.029671
v 27.778381 159.281555 -83.002014
v 24.730373 157.074219 -115.159660
v 37.869781 127.414124 -102.826492
v 120.506073 60.448555 -156.927673
v 32.475487 20.952206 -67.060104
v -27.119482 16.803780 -56.028534
v 7.832008 36.052673 -149.634598
v -148.640167 71.972885 -37.770927
v -139.586319 98.026291 -110.700104
v -123.608177 119.456528 -81.270401
v -116.702225 127.946602 -121.128021
v -117.039719 115.502579 -151.342285
v 110.274895 65.819717 -40.602833
v 108.934151 77.432076 -68.247681
v 118.240845 48.096180 0.520889
v 129.093430 29.050331 2.336040
v 39.431595 13.346207 -32.341927
v 131.096588 6.498553 -42.447220
v 102.075089 -7.743974 30.098244
v 148.886948 2.072987 -9.443840
v 106.015862 13.362816 -118.493782
v 94.755173 51.650314 -188.511063
v 54.207634 60.935295 -211.595169
v -15.336636 76.449089 -213.824966
v 10.926949 107.573875 -197.674026
v 38.729233 84.077736 -204.750793
v 65.646866 79.286621 -206.015961
v 40.139847 111.849930 -139.331146
v 86.217674 87.676315 -144.230576
v 20.325058 112.785080 -180.512451
v 75.345619 89.814636 -192.886856
v -95.386864 52.132393 -34.610806
v -79.102768 22.500959 147.151031
v -12.113495 21.542568 205.288391
v -23.501190 24.594982 243.743027
v -59.449699 20.345383 244.594223
v -47.532097 40.062138 241.494644
v -25.156654 44.905308 239.635712
v -55.569088 45.840614 221.995850
v -106.201271 133.998642 -143.647278
v -94.910767 77.777924 -149.618240
v -11.348629 152.641098 -157.298019
v -9.638187 143.012390 -168.435379
v -50.492195 152.013657 -141.207993
v -32.024620 103.764221 -196.240829
v -50.230354 96.154022 -193.341309
v -93.935562 144.222519 -128.558777
v 14.871544 136.083832 -174.866547
v 28.244427 136.551819 -160.820236
v 20.787746 151.539474 -162.635117
v 105.265961 66.478653 -189.562897
v 89.229408 94.228333 -107.690063
v 50.747139 38.928947 137.630524
v -79.789253 31.714230 185.740906
v -66.162430 54.576923 193.688843
v 52.083900 6.492962 91.562981
v -0.052589 13.855949 164.503250
v -44.651485 -0.613533 140.338623
v -49.475094 11.572643 190.281464
v -59.332085 75.693741 160.882095
v 3.072414 10.824829 187.725143
v -72.477859 32.325081 215.859283
v 82.426086 73.709930 -203.207047
v 108.738380 31.913307 17.837311
vn 0.7218 0.6886 0.0689
vn 0.9017 0.4087 -0.1412
vn 0.7138 0.5275 0.4607
vn 0.7137 0.5276 0.4607
vn 0.7767 0.4658 0.4240
vn 0.8280 0.5469 -0.1237
vn 0.3821 0.9235 -0.0341
vn 0.5104 0.8022 0.3098
vn 0.5104 0.8022 0.3099
vn 0.1972 0.8374 0.5098
vn -0.1374 0.7706 0.6223
vn -0.3258 0.9011 0.2861
vn -0.4453 0.6251 0.6411
vn -0.4452 0.6251 0.6411
vn -0.3258 0.9011 0.2860
vn -0.5696 0.8031 0.1749
vn -0.2015 -0.9634 -0.1767
vn -0.1696 -0.9774 -0.1258
vn -0.0815 -0.9762 -0.2008
vn -0.0815 -0.9762 -0.2007
vn -0.1696 -0.9775 -0.1257
vn -0.2286 -0.9661 0.1199
vn 0.1032 0.6048 -0.7896
vn 0.0610 0.5497 -0.8331
vn -0.2624 0.6178 -0.7413
vn -0.2774 0.8484 0.4509
vn 0.1952 0.6842 0.7027
vn 0.1951 0.6842 0.7027
vn 0.2515 0.5683 0.7835
vn -0.5189 0.8041 0.2903
vn -0.6372 0.7121 0.2947
vn -0.8768 -0.4625 0.1317
vn -0.8023 0.5678 0.1843
vn -0.9298 -0.3285 0.1658
vn -0.6372 0.7121 0.2948
vn -0.9298 -0.3285 0.1659
vn -0.8768 -0.4625 0.1318
vn -0.3328 0.7309 -0.5958
vn -0.2625 0.6178 -0.7413
vn -0.4439 0.2859 -0.8492
vn 0.7331 0.6792 0.0356
vn 0.8143 0.5118 0.2738
vn 0.9119 -0.2678 -0.3111
vn 0.8143 0.5118 0.2737
vn 0.9423 -0.2946 -0.1592
vn 0.8430 0.1025 0.5280
vn 0.7073 0.5159 0.4832
vn 0.8439 0.1092 0.5253
vn 0.7927 -0.4319 0.4303
vn 0.2405 0.9127 0.3304
vn 0.3990 0.8626 0.3111
vn 0.1699 0.9267 0.3353
vn 0.1699 0.9267 0.3354
vn 0.4645 0.7540 0.4645
vn 0.1698 0.9267 0.3354
vn 0.1952 0.6843 0.7026
vn 0.4646 0.7539 0.4645
vn 0.7955 0.3430 0.4995
vn -0.9602 -0.0110 0.2789
vn -0.9602 -0.0109 0.2789
vn -0.7439 0.5545 0.3729
vn -0.2015 -0.9634 -0.1768
vn -0.3077 -0.9189 -0.2469
vn 0.8076 0.0223 0.5893
vn 0.8642 0.2411 0.4417
vn 0.7956 0.3429 0.4995
vn 0.8076 0.0222 0.5893
vn -0.3871 0.8580 0.3377
vn -0.5696 0.8031 0.1750
vn -0.4703 0.8677 0.1607
vn -0.4703 0.8678 0.1606
vn -0.5695 0.8031 0.1749
vn -0.2738 0.9617 0.0119
vn 0.3820 0.9235 -0.0342
vn 0.0079 0.9614 -0.2750
vn 0.3821 0.9235 -0.0342
vn 0.7401 0.5935 -0.3162
vn 0.0079 0.9614 -0.2751
vn 0.7841 0.6085 -0.1219
vn 0.9016 0.4088 -0.1413
vn 0.7401 0.5934 -0.3162
vn 0.7896 0.5811 -0.1971
vn 0.7401 0.5934 -0.3163
vn 0.9119 -0.2678 -0.3110
vn 0.8803 0.3860 -0.2758
vn -0.0861 -0.9806 -0.1759
vn -0.2342 -0.9716 0.0327
vn -0.1880 -0.9256 -0.3284
vn -0.9422 -0.3183 -0.1050
vn -0.9695 0.0003 -0.2449
vn -0.8023 0.5678 0.1842
vn -0.7042 0.6993 0.1231
vn -0.7024 0.7093 -0.0594
vn -0.7025 0.7092 -0.0594
vn -0.7042 0.2285 -0.6722
vn -0.9696 0.0003 -0.2449
vn 0.7218 0.6887 0.0690
vn 0.7138 0.5276 0.4606
vn 0.6641 0.7100 0.2341
vn 0.6641 0.7101 0.2341
vn 0.6822 0.7208 0.1230
vn 0.7051 0.5674 0.4252
vn 0.6641 0.7101 0.2340
vn 0.7137 0.5276 0.4606
vn 0.8642 0.2411 0.4416
vn 0.7052 0.5674 0.4252
vn 0.5666 0.3432 0.7492
vn -0.1747 -0.9846 -0.0083
vn 0.2282 -0.9454 -0.2326
vn 0.3667 -0.8107 0.4565
vn 0.6619 -0.7478 0.0516
vn -0.0862 -0.9806 -0.1759
vn -0.1880 -0.9257 -0.3283
vn 0.0921 -0.9490 -0.3016
vn 0.5193 -0.5683 -0.6382
vn 0.1007 -0.3917 -0.9146
vn -0.2183 0.0169 -0.9757
vn 0.2413 0.6454 -0.7247
vn 0.1648 0.5090 -0.8449
vn 0.1613 0.5088 -0.8456
vn 0.7041 0.6567 -0.2703
vn 0.5378 0.8330 -0.1298
vn 0.4640 0.6454 -0.6068
vn 0.4640 0.6453 -0.6068
vn 0.4629 0.7883 -0.4053
vn -0.3870 0.8580 0.3377
vn -0.5188 0.8041 0.2903
vn -0.3871 0.8580 0.3376
vn -0.6371 0.7122 0.2947
vn -0.1697 -0.9774 -0.1258
vn -0.3380 -0.9339 -0.1166
vn -0.3380 -0.9339 -0.1167
vn -0.9299 -0.3284 0.1658
vn -0.9422 -0.3182 -0.1051
vn -0.9603 -0.0109 0.2789
vn -0.6141 -0.7877 0.0487
vn -0.6141 -0.7878 0.0487
vn -0.3078 -0.9189 -0.2469
vn -0.3078 -0.9189 -0.2468
vn 0.2907 -0.8977 0.3310
vn 0.4540 -0.3021 0.8382
vn -0.5411 -0.4569 0.7060
vn 0.4539 -0.3021 0.8383
vn -0.2521 0.5258 0.8124
vn 0.2518 0.7410 0.6225
vn -0.2522 0.5257 0.8124
vn 0.2518 0.7409 0.6226
vn -0.4403 0.7896 0.4275
vn -0.4703 0.8678 0.1607
vn -0.7041 0.6993 0.1232
vn -0.5054 0.6988 -0.5062
vn -0.5053 0.6989 -0.5062
vn -0.5595 -0.6100 -0.5611
vn -0.9695 0.0003 -0.2450
vn -0.9696 0.0002 -0.2449
vn 0.8280 0.5469 -0.1236
vn -0.2775 0.8484 0.4509
vn -0.5695 0.8031 0.1750
vn -0.1711 0.7668 -0.6187
vn -0.1055 0.7789 -0.6182
vn -0.3003 0.8832 -0.3602
vn -0.3328 0.7310 -0.5958
vn -0.2624 0.6179 -0.7412
vn -0.1055 0.7790 -0.6181
vn 0.1032 0.6049 -0.7896
vn -0.3003 0.8832 -0.3601
vn 0.2514 0.5683 0.7835
vn -0.1373 0.7706 0.6223
vn -0.1373 0.7707 0.6223
vn 0.2515 0.5683 0.7834
vn 0.1972 0.8373 0.5099
vn -0.2749 0.4574 -0.8457
vn -0.5594 -0.6100 -0.5612
vn -0.5282 0.1665 -0.8326
vn -0.2625 0.6178 -0.7412
vn -0.2750 0.4573 -0.8457
vn -0.2750 0.4574 -0.8457
vn -0.2737 0.9617 0.0120
vn -0.3003 0.8833 -0.3601
vn -0.3643 0.9272 -0.0874
vn -0.3644 0.9271 -0.0875
vn -0.3328 0.7310 -0.5957
vn 0.3850 0.5161 -0.7651
vn 0.8770 0.3150 -0.3628
vn 0.4639 0.6454 -0.6068
vn -0.5054 0.6988 -0.5061
vn -0.5054 0.6989 -0.5061
vn -0.7043 0.2285 -0.6722
vn -0.5595 -0.6099 -0.5612
vn -0.2286 -0.9661 0.1200
vn -0.1747 -0.9846 -0.0082
vn -0.0862 -0.9806 -0.1760
vn 0.9119 -0.2677 -0.3110
vn 0.2283 -0.9454 -0.2326
vn 0.0922 -0.9490 -0.3016
vn -0.3643 0.9271 -0.0874
vn 0.3700 0.7309 -0.5735
vn 0.5193 -0.5684 -0.6382
vn 0.9119 -0.2677 -0.3111
vn 0.5194 -0.5683 -0.6382
vn 0.7393 0.1616 -0.6537
vn -0.1748 -0.9846 -0.0083
vn 0.7218 0.6887 0.0689
vn 0.6822 0.7208 0.1229
vn 0.5941 0.7958 -0.1175
vn 0.5379 0.8330 -0.1298
vn 0.7330 0.6793 0.0356
vn -0.9299 -0.3285 0.1658
vn -0.1697 -0.9774 -0.1257
vn -0.7041 0.6993 0.1231
vn -0.4704 0.8677 0.1606
vn -0.3644 0.9271 -0.0874
vn -0.1711 0.7668 -0.6186
vn 0.3701 0.7308 -0.5735
vn 0.7841 0.6085 -0.1220
vn 0.0080 0.9614 -0.2751
vn -0.2737 0.9617 0.0119
vn 0.8771 0.3150 -0.3627
vn 0.7896 0.5811 -0.1970
vn 0.7041 0.6566 -0.2703
vn 0.7896 0.5812 -0.1970
vn 0.5940 0.7958 -0.1175
vn 0.8302 0.3374 0.4437
vn 0.7073 0.5159 0.4833
vn 0.8438 0.1092 0.5254
vn -0.9602 -0.0109 0.2790
vn -0.9123 -0.2488 0.3254
vn -0.7440 0.5545 0.3729
vn -0.7439 0.5545 0.3730
vn -0.5560 0.7144 0.4249
vn 0.4319 -0.8721 0.2300
vn 0.2946 -0.9378 0.1835
vn -0.1947 -0.9807 0.0190
vn -0.2808 -0.9429 0.1789
vn 0.8303 0.3374 0.4436
vn 0.2947 -0.9378 0.1834
vn 0.2947 -0.9378 0.1835
vn 0.8303 0.3375 0.4436
vn 0.7926 -0.4319 0.4303
vn 0.8302 0.3375 0.4437
vn 0.7926 -0.4320 0.4303
vn -0.9123 -0.2487 0.3255
vn -0.2336 0.9107 0.3406
vn 0.1698 0.9267 0.3353
vn -0.5188 0.8041 0.2902
vn -0.2774 0.8484 0.4508
vn 0.2907 -0.8977 0.3311
vn 0.4449 -0.8548 0.2670
vn 0.2404 0.9127 0.3304
vn -0.4403 0.7895 0.4275
vn -0.5560 0.7144 0.4250
vn -0.2336 0.9107 0.3407
vn -0.5560 0.7143 0.4250
vn 0.4538 -0.3021 0.8383
vn -0.9327 0.0212 0.3599
vn -0.5411 -0.4568 0.7061
vn -0.4404 0.7895 0.4275
vn -0.5411 -0.4568 0.7060
vn 0.4449 -0.8548 0.2671
vn -0.9327 0.0212 0.3600
vn -0.2809 -0.9429 0.1789
vn -0.3257 0.9011 0.2861
vn -0.0816 -0.9762 -0.2008
vn -0.2287 -0.9661 0.1199
vn 0.3667 -0.8107 0.4564
vn -0.1748 -0.9846 -0.0082
vn 0.7767 0.4658 0.4241
vn -0.1947 -0.9807 0.0189
vn -0.0816 -0.9762 -0.2007
vn 0.7401 0.5935 -0.3163
vn 0.7842 0.6085 -0.1220
vn 0.7842 0.6085 -0.1219
vn 0.8770 0.3150 -0.3627
vn -0.5595 -0.6100 -0.5612
vn -0.2184 0.0169 -0.9757
vn -0.1881 -0.9256 -0.3284
vn 0.1006 -0.3917 -0.9146
vn 0.4232 0.1561 -0.8925
vn 0.4233 0.1560 -0.8925
vn 0.5193 -0.5683 -0.6383
vn 0.4232 0.1560 -0.8925
vn 0.7394 0.1616 -0.6536
vn 0.4630 0.7883 -0.4053
vn 0.7394 0.1615 -0.6536
vn -0.1948 -0.9807 0.0189
vn 0.1973 0.8373 0.5099
vn -0.2287 -0.9661 0.1200
vn -0.3379 -0.9339 -0.1166
vn -0.5560 0.7143 0.4249
vn -0.9327 0.0213 0.3599
vn -0.1948 -0.9807 0.0190
vn -0.6141 -0.7877 0.0488
vn -0.9123 -0.2487 0.3254
vn -0.9328 0.0212 0.3599
vn -0.2337 0.9107 0.3406
vn 0.4646 0.7540 0.4644
vn 0.7956 0.3430 0.4994
vn 0.7956 0.3430 0.4995
vn 0.3666 -0.8107 0.4565
vn 0.8082 0.0718 0.5846
vn 0.8077 0.0222 0.5892
vn 0.4319 -0.8721 0.2299
vn 0.5666 0.3431 0.7492
vn 0.8081 0.0719 0.5846
vn 0.8430 0.1024 0.5280
vn 0.5665 0.3431 0.7492
vn 0.9423 -0.2946 -0.1591
vn 0.9423 -0.2945 -0.1591
vn 0.9423 -0.2945 -0.1592
vn 0.8076 0.0222 0.5892
vn 0.8081 0.0718 0.5846
vn 0.8642 0.2410 0.4417
vn 0.8081 0.0719 0.5847
vn 0.5666 0.3432 0.7491
vn 0.6822 0.7207 0.1230
vn 0.7330 0.6793 0.0357
vn 0.5941 0.7958 -0.1174
vn -0.1710 0.7668 -0.6187
vn 0.3850 0.5161 -0.7652
vn -0.1054 0.7789 -0.6182
vn 0.0611 0.5497 -0.8331
vn 0.0610 0.5497 -0.8332
vn 0.2413 0.6455 -0.7247
vn 0.1649 0.5090 -0.8449
vn 0.2414 0.6454 -0.7247
vn 0.1648 0.5090 -0.8448
vn 0.1613 0.5089 -0.8456
vn 0.4630 0.7883 -0.4054
vn -0.2184 0.0170 -0.9757
vn 0.7051 0.5674 0.4253
vt 0.607681 0.500310
vt 0.584649 0.569224
vt 0.369588 0.570639
vt 0.484936 0.627675
vt 0.573548 0.624390
vt 0.599322 0.653665
vt 0.528322 0.648925
vt 0.505593 0.672177
vt 0.494034 0.717410
vt 0.594183 0.730701
vt 0.440367 0.745484
vt 0.651731 0.795720
vt 0.433221 0.215804
vt 0.360771 0.275111
vt 0.415060 0.187744
vt 0.313945 0.210060
vt 0.851892 0.663211
vt 0.878575 0.655780
vt 0.871790 0.731757
vt 0.402020 0.795755
vt 0.337185 0.708762
vt 0.409813 0.680231
vt 0.309188 0.891875
vt 0.562575 0.920625
vt 0.382639 0.977959
vt 0.654638 0.974747
vt 0.533035 0.992171
vt 0.822888 0.805198
vt 0.877412 0.812824
vt 0.619416 0.414634
vt 0.480875 0.378129
vt 0.657907 0.334944
vt 0.512085 0.340818
vt 0.469088 0.364330
vt 0.146405 0.713369
vt 0.084241 0.753025
vt 0.115393 0.690366
vt 0.168351 0.791089
vt 0.241294 0.688908
vt 0.276593 0.797940
vt 0.282344 0.649498
vt 0.276682 0.598087
vt 0.219101 0.948775
vt 0.202122 0.891783
vt 0.475489 0.176856
vt 0.314678 0.545859
vt 0.422177 0.481126
vt 0.559996 0.845051
vt 0.699718 0.853622
vt 0.743189 0.806895
vt 0.723475 0.710723
vt 0.675031 0.640156
vt 0.725532 0.639108
vt 0.707174 0.589744
vt 0.776926 0.398257
vt 0.207810 0.166767
vt 0.256956 0.226016
vt 0.128226 0.253950
vt 0.360171 0.363844
vt 0.347765 0.399689
vt 0.276462 0.419712
vt 0.708707 0.915093
vt 0.776343 0.961835
vt 0.783276 0.881273
vt 0.850659 0.880011
vt 0.555789 0.455678
vt 0.613454 0.457370
vt 0.469446 0.445987
vt 0.452257 0.404491
vt 0.245390 0.134449
vt 0.170343 0.033451
vt 0.277613 0.015355
vt 0.373422 0.392302
vt 0.501596 0.301505
vt 0.466012 0.344169
vt 0.100204 0.115923
vt 0.015459 0.184996
vt 0.016611 0.250791
vt 0.986204 0.639342
vt 0.895189 0.610093
vt 0.913779 0.534679
vt 0.945269 0.474877
vt 0.895767 0.482380
vt 0.771598 0.569340
vt 0.765183 0.477590
vt 0.855349 0.597393
vt 0.858638 0.482319
vt 0.404801 0.335024
vt 0.330245 0.300049
vt 0.562074 0.189177
vt 0.476043 0.260882
vt 0.545717 0.158941
vt 0.058428 0.723640
vt 0.056624 0.785795
vt 0.020495 0.824918
vt 0.059193 0.817407
vt 0.070693 0.793029
vt 0.088112 0.839643
vt 0.819501 0.849101
vt 0.197883 0.387360
vt 0.803061 0.685371
vt 0.827002 0.676850
vt 0.790395 0.753789
vt 0.925208 0.695035
vt 0.935951 0.865426
vt 0.941575 0.735332
vt 0.786633 0.830037
vt 0.828546 0.633882
vt 0.801398 0.617363
vt 0.214286 0.444993
vt 0.082834 0.064487
vt 0.798960 0.639900
vt 0.864574 0.385584
vt 0.842071 0.416374
vt 0.695911 0.490020
vt 0.219615 0.626752
vt 0.133482 0.919991
vt 0.141225 0.862932
vt 0.385203 0.035991
vt 0.512279 0.040875
vt 0.512254 0.113031
vt 0.579009 0.088966
vt 0.236890 0.517265
vt 0.093969 0.641340
vt 0.599957 0.138988
vt 0.215966 0.844530
vt 0.090398 0.685929
vt 0.074978 0.881127
vt 0.574649 0.028412
vt 0.634664 0.108429
vt 0.657536 0.064159
vt 0.063302 0.340727
vt 0.876856 0.451708
vt 0.418034 0.442987
vt 0.107051 0.385740
s 0
usemtl Siatka_Siatka_Siatka_Siatka_Siatka_Siatka__mtl_cloud_small41_0
f 9/15/7 10/16/8 11/17/9
f 11/17/10 10/16/8 12/18/11
f 13/19/12 14/20/13 15/21/14
f 15/21/15 14/20/13 16/22/16
f 17/23/17 18/24/18 19/25/19
f 19/25/20 18/24/21 20/26/22
f 21/27/23 22/28/24 23/29/25
f 23/29/26 22/28/27 24/30/28
f 25/31/29 26/32/30 27/33/31
f 28/34/32 29/35/33 19/25/20
f 19/25/20 29/35/34 30/36/35
f 31/37/36 32/38/37 33/39/38
f 34/40/39 35/41/40 32/38/37
f 32/38/41 35/41/42 33/39/43
f 36/42/44 27/33/45 37/43/46
f 38/44/47 39/45/48 40/46/49
f 40/46/49 39/45/50 41/47/51
f 39/45/48 42/48/52 41/47/51
f 43/49/53 44/50/54 45/51/55
f 46/52/56 47/53/57 48/54/58
f 48/54/59 47/53/57 49/55/60
f 49/55/60 29/35/33 48/54/61
f 11/17/10 29/35/62 49/55/60
f 49/55/63 50/56/64 11/17/10
f 33/39/43 51/57/65 31/37/36
f 31/37/36 51/57/66 52/58/67
f 21/27/68 23/29/25 53/59/69
f 54/60/70 55/61/71 11/17/9
f 50/56/72 54/60/73 11/17/9
f 56/62/74 20/26/75 57/63/76
f 57/63/77 20/26/78 58/64/79
f 18/24/18 14/20/80 59/65/81
f 14/20/82 60/66/83 59/65/84
f 60/66/83 61/67/85 59/65/84
f 13/19/12 10/16/86 60/66/87
f 10/16/86 62/68/88 60/66/89
f 38/44/47 40/46/90 63/69/91
f 64/70/92 65/71/93 66/72/94
f 67/73/95 34/74/39 68/75/96
f 34/40/97 69/76/98 68/77/96
f 69/76/98 70/78/99 68/77/96
f 70/78/100 71/79/101 68/77/102
f 9/15/103 11/17/104 72/80/105
f 72/80/106 73/81/107 9/15/103
f 74/82/108 72/80/109 11/17/10
f 11/17/110 55/61/111 74/82/112
f 39/45/48 75/83/113 42/48/52
f 76/84/114 77/85/115 78/86/116
f 78/87/116 77/88/115 79/89/117
f 64/70/118 66/72/119 80/90/120
f 81/91/121 80/90/120 82/92/122
f 66/72/94 82/92/122 80/90/120
f 83/93/123 84/94/124 85/95/125
f 85/95/125 82/96/122 83/93/123
f 82/96/122 85/95/125 86/97/126
f 87/98/127 88/99/128 89/100/129
f 89/100/130 88/99/128 90/101/131
f 28/34/32 56/62/132 31/37/133
f 31/37/133 56/62/134 32/38/135
f 22/28/136 35/102/40 91/103/137
f 91/103/138 35/102/139 67/73/140
f 51/104/141 33/105/38 92/106/142
f 92/106/143 33/105/43 53/59/144
f 21/27/68 53/59/145 33/105/38
f 93/107/146 94/108/147 95/109/148
f 95/109/148 94/108/149 96/110/150
f 94/108/149 97/111/151 96/110/152
f 96/110/152 97/111/153 98/112/154
f 56/62/74 57/63/155 32/38/135
f 32/38/37 57/63/76 69/76/156
f 36/42/44 37/43/46 99/113/157
f 99/113/158 37/43/46 71/79/101
f 100/114/159 91/103/138 68/75/160
f 68/75/161 91/103/138 67/73/140
f 10/16/8 13/19/162 12/18/11
f 12/18/11 13/19/12 15/21/15
f 19/25/19 20/26/75 28/34/163
f 28/34/163 20/26/164 56/62/74
f 101/115/165 102/116/166 103/117/167
f 36/42/168 103/117/167 27/33/169
f 102/116/170 25/31/171 27/33/169
f 27/33/169 103/117/172 102/116/166
f 19/25/20 30/36/173 17/23/174
f 17/23/175 30/36/176 16/22/177
f 26/32/30 104/118/178 27/33/31
f 100/119/179 37/43/46 105/120/180
f 37/43/46 27/33/181 104/118/182
f 104/118/183 105/120/180 37/43/46
f 58/64/184 103/117/185 106/121/186
f 106/121/187 103/117/185 36/42/188
f 107/122/189 108/123/190 89/100/129
f 89/100/191 108/123/190 87/98/127
f 71/79/101 70/78/100 99/113/192
f 70/78/99 106/121/187 99/113/193
f 99/113/158 106/121/187 36/42/188
f 37/43/46 100/119/159 71/79/101
f 71/124/194 100/114/195 68/75/102
f 24/30/196 65/71/93 76/84/197
f 76/84/114 65/71/93 64/70/198
f 35/102/42 34/74/39 67/73/95
f 40/125/199 77/85/200 80/90/201
f 57/63/77 58/64/184 106/121/202
f 109/126/203 108/123/190 107/122/189
f 80/90/120 81/91/204 40/125/90
f 40/46/205 81/127/121 63/69/91
f 63/69/91 81/127/206 110/128/207
f 69/76/156 34/40/39 32/38/37
f 77/85/115 76/84/197 80/90/120
f 80/90/120 76/84/208 64/70/118
f 9/15/209 73/81/210 111/129/211
f 63/69/91 88/99/212 38/44/213
f 88/99/212 111/129/211 38/44/213
f 35/102/214 22/28/215 33/105/38
f 33/105/38 22/28/136 21/27/23
f 69/76/216 57/63/217 70/78/99
f 70/78/99 57/63/217 106/121/218
f 103/117/172 59/65/84 101/115/219
f 109/126/220 59/65/84 61/67/221
f 18/24/18 59/65/84 20/26/22
f 59/65/222 103/117/172 20/26/22
f 103/117/185 58/64/223 20/26/22
f 108/123/224 62/68/225 87/98/226
f 87/98/127 62/68/227 111/129/228
f 112/130/229 46/52/56 43/49/230
f 43/49/53 46/52/56 44/50/231
f 46/52/56 97/111/151 44/50/231
f 51/57/232 113/131/233 52/58/234
f 52/58/235 113/131/233 114/132/236
f 115/133/237 116/134/238 117/135/239
f 117/135/239 116/134/238 118/136/240
f 115/137/237 112/130/241 116/138/242
f 116/138/243 112/130/244 45/51/245
f 112/130/246 43/49/53 45/51/247
f 51/104/141 92/106/142 113/139/248
f 52/58/67 119/140/249 31/37/36
f 119/140/249 48/54/250 31/37/251
f 48/54/250 28/34/252 31/37/251
f 94/108/149 93/107/253 44/50/231
f 120/141/254 45/51/247 93/107/253
f 45/51/247 44/50/54 93/107/253
f 97/111/153 46/52/255 98/112/256
f 98/112/256 46/52/255 114/132/257
f 46/52/255 119/140/258 114/132/259
f 44/50/231 97/111/151 94/108/260
f 121/142/261 95/109/262 98/112/263
f 98/112/263 95/109/264 96/110/150
f 118/136/240 116/134/238 93/143/146
f 93/107/146 116/138/238 120/141/265
f 116/138/238 45/51/247 120/141/265
f 121/144/266 118/136/267 95/145/264
f 95/145/148 118/136/240 93/143/146
f 14/20/82 18/24/18 16/22/16
f 16/22/16 18/24/268 17/23/175
f 23/29/269 24/30/270 78/86/116
f 78/86/271 24/30/270 76/84/272
f 29/35/33 11/17/10 30/36/176
f 30/36/176 11/17/10 12/18/273
f 48/54/250 29/35/33 28/34/32
f 117/135/274 53/59/69 115/133/237
f 53/59/69 23/29/269 115/133/237
f 23/29/275 78/86/116 115/133/237
f 60/66/276 14/20/82 13/19/12
f 60/66/83 62/68/225 61/67/277
f 109/126/203 61/67/278 108/123/224
f 62/68/225 108/123/279 61/67/277
f 91/103/137 100/114/280 65/71/93
f 83/146/281 66/72/282 100/114/179
f 66/72/282 65/71/93 100/114/179
f 82/92/122 66/72/94 83/146/281
f 82/96/283 86/97/126 122/147/284
f 122/147/285 81/127/286 82/96/122
f 81/127/121 122/147/287 110/128/288
f 88/99/128 63/69/91 90/101/289
f 90/101/289 63/69/91 110/128/290
f 92/106/142 53/59/144 117/135/291
f 30/36/176 12/18/11 16/22/292
f 16/22/292 12/18/273 15/21/15
f 65/71/93 24/30/293 91/103/138
f 91/103/294 24/30/28 22/28/215
f 111/129/228 88/99/128 87/98/127
f 111/129/228 62/68/227 9/15/103
f 9/15/103 62/68/227 10/16/86
f 98/112/263 114/132/295 121/142/261
f 114/132/295 113/131/233 121/142/296
f 117/135/297 118/136/267 92/106/298
f 92/106/298 118/136/267 113/139/248
f 113/139/299 118/136/267 121/144/300
f 48/54/250 119/140/249 46/52/255
f 114/132/236 119/140/301 52/58/67
f 46/52/56 112/130/241 47/53/57
f 49/55/60 47/53/57 112/130/244
f 50/56/72 49/55/302 112/130/246
f 115/137/237 54/60/73 50/56/303
f 50/56/304 112/130/229 115/137/237
f 78/87/305 123/148/306 54/60/307
f 54/60/73 115/137/308 78/87/271
f 75/83/309 123/148/310 78/87/271
f 42/48/311 75/83/312 78/87/116
f 78/87/305 79/89/117 42/48/311
f 41/47/313 42/48/52 79/89/117
f 79/89/117 77/88/200 41/47/314
f 40/46/205 41/47/315 77/88/200
f 54/60/316 123/148/317 55/61/318
f 74/82/108 55/61/71 123/148/317
f 123/148/319 75/83/320 74/82/112
f 38/44/213 72/80/109 74/82/112
f 74/82/112 39/45/48 38/44/213
f 73/81/321 72/80/105 38/44/322
f 111/129/323 73/81/210 38/44/213
f 101/115/324 59/65/84 109/126/203
f 109/126/220 107/122/325 102/116/166
f 102/116/166 101/115/324 109/126/220
f 107/122/189 25/31/171 102/116/326
f 89/100/130 26/32/327 25/31/29
f 25/31/29 107/122/325 89/100/129
f 26/32/328 84/94/124 83/93/281
f 89/100/191 84/94/329 26/32/30
f 85/95/330 84/94/331 89/100/129
f 86/97/126 85/95/332 89/100/191
f 89/100/191 90/101/131 86/97/333
f 122/147/285 86/97/126 90/101/131
f 110/128/290 122/147/285 90/101/334
f 26/32/327 83/93/281 104/118/178
f 105/120/180 104/118/178 83/93/281
f 100/114/195 105/149/180 83/146/335
f 74/82/336 75/83/320 39/45/48
