#
#
#

mtllib Tree.mtl


#
# Siatka 
#
g Siatka 


#
# Siatka _mtl_tree_141_0
#
usemtl Siatka _mtl_tree_141_0

v 112.204704 -40.261600 -4.195747
v 75.876915 -65.004524 -2.133211
v 71.358109 -40.260704 -47.472084
v 129.287445 -32.702168 -4.560647
v 136.632919 -25.707062 -25.785509
v 96.538986 -34.712215 -39.204720
v 173.456146 -13.170659 7.605823
v 224.204483 1.457927 -3.406827
v 179.864944 9.859920 8.900054
v 206.620667 11.042194 -0.323073
v 182.546280 19.344007 -1.192185
v 173.111877 13.132979 4.602673
v 171.808624 7.568822 6.173395
v 72.068375 18.291519 61.489059
v 52.563877 55.117466 7.043364
v 59.036880 12.533506 33.513374
v 45.713028 44.798752 6.731838
v 45.643570 36.860287 -31.612919
v 47.538040 6.756130 -38.669407
v 81.571213 6.775492 5.473271
v 84.690796 50.590931 -28.673424
v 84.104301 7.779914 -38.684826
v 52.088020 42.624996 -38.743309
v 59.806484 6.745707 -62.437016
v 118.169334 3.881218 -40.426346
v 108.558067 43.880074 -14.909206
v 90.702843 -40.260975 44.539639
v 72.032104 -36.521339 41.466164
v 128.757050 -2.668868 33.330547
v 101.850639 2.959370 62.144226
v 128.001007 -24.436926 15.315357
v 179.662003 -13.279316 -13.926371
v 123.556419 22.246008 38.081181
v 94.655983 49.951202 24.780704
v 76.828644 65.004532 0.719601
v 175.643585 0.423555 -21.695436
v 181.138000 9.864241 -21.544802
v 184.208435 21.144381 -10.938400
v 152.517563 -14.888846 24.703249
v 173.614243 5.158379 10.189098
v 71.954269 -59.130653 -1.502805
v 92.713913 38.053635 46.986824
v 169.067764 -10.922994 -8.371887
v 163.199097 6.073151 -18.258265
v 155.089478 21.077150 -17.337652
v 117.396072 44.742424 -16.177923
v 155.258118 22.036846 -2.177335
v 120.869133 47.612843 -7.131840
v 124.723320 39.140877 12.912722
v 68.968918 -31.764761 -50.176289
v 64.245743 -35.695019 -43.176537
v 87.885590 43.315193 11.085421
v 172.429306 11.565897 -20.151382
v 169.939041 16.340586 -14.840263
v 173.862900 18.054300 -1.505708
v 153.902313 16.124971 15.061381
v 149.400375 5.584196 17.750097
v 86.770203 -25.674839 -33.836033
v 95.446365 20.087048 50.860767
v 89.110329 14.736135 37.592709
v -0.033876 4.349845 -18.703527
v -0.004070 18.947342 -2.248819
v 8.630617 10.403009 -7.914363
v 12.610740 14.937592 0.673157
v 0.032571 14.918699 17.980169
v 15.457718 12.817234 12.679349
v 17.045002 5.076969 18.521646
v 0.039358 -0.719966 21.728363
v 18.227383 -1.100893 18.002668
v 0.014013 -8.487106 7.736398
v 16.050404 -9.337800 -0.488312
v -0.019979 -5.178069 -11.029811
v 10.887637 -4.246147 -8.556886
v 9.414156 1.435966 -11.527342
v 0.000591 4.349790 0.325102
v 32.650764 9.686983 -6.174119
v 36.748714 13.100654 2.128951
v 53.220947 7.621799 0.442373
v 49.536697 12.759085 2.671964
v 37.272423 10.446415 6.105242
v 57.608486 10.181433 10.435860
v 35.682983 3.110702 10.924810
v 57.831837 2.854342 14.594757
v 36.503212 -1.624858 9.811440
v 58.172562 -0.820084 13.056346
v 33.430153 -2.776573 3.518890
v 47.576038 -4.518007 -1.820161
v 30.592293 -3.223278 -8.416527
v 53.644482 0.930452 -3.566066
v 45.542606 6.514219 -4.945457
v 86.749275 11.043470 -1.737989
v 86.758942 12.148153 3.601551
v 86.771286 4.495510 10.417046
v 86.768188 -0.681029 8.703929
v 86.750008 -2.757072 -1.331192
v 86.743149 6.765069 -5.118274
vn 0.419276 -0.903749 -0.086285
vn -0.182960 -0.982663 0.029970
vn 0.101057 -0.567973 -0.816819
vn 0.388265 -0.913912 0.118386
vn 0.418166 -0.644108 -0.640517
vn 0.419276 -0.903749 -0.086285
vn -0.234070 -0.663837 -0.710304
vn 0.385637 -0.824509 0.414089
vn 0.964317 0.021461 -0.263879
vn 0.032185 0.398080 0.916786
vn 0.368112 0.789666 0.490837
vn 0.034073 0.866089 0.498728
vn 0.032185 0.398080 0.916786
vn 0.155958 0.701137 0.695762
vn 0.075363 0.489664 0.868648
vn -0.104034 0.407104 0.907438
vn -0.671612 0.730746 0.122261
vn -0.976123 -0.153641 0.153553
vn -0.983341 -0.135005 0.121709
vn -0.993406 0.106994 -0.041182
vn -0.963643 -0.181475 -0.196110
vn -0.945536 -0.314227 0.084991
vn 0.144254 0.716666 -0.682335
vn 0.353224 0.089221 -0.931275
vn -0.401184 0.585529 -0.704420
vn -0.193810 0.108220 -0.975052
vn 0.166571 0.217567 -0.961727
vn 0.169569 0.922164 -0.347649
vn 0.070464 -0.721649 0.688664
vn -0.852610 -0.411341 0.322266
vn 0.421576 -0.351590 0.835858
vn 0.183584 -0.004863 0.982992
vn 0.401728 -0.771049 0.494063
vn -0.033155 -0.879982 -0.473849
vn 0.964317 0.021461 -0.263879
vn 0.420265 0.535120 0.732820
vn -0.013976 0.986014 0.166073
vn 0.292470 0.932447 0.212142
vn -0.116184 -0.281042 -0.952637
vn 0.140705 0.426935 -0.893269
vn 0.964317 0.021461 -0.263879
vn 0.132033 0.962771 -0.235881
vn 0.368112 0.789666 0.490837
vn 0.435815 -0.232166 0.869578
vn 0.032185 0.398080 0.916786
vn 0.235476 0.403699 0.884069
vn 0.419276 -0.903749 -0.086285
vn 0.419276 -0.903749 -0.086285
vn 0.419276 -0.903749 -0.086285
vn -0.872513 -0.472511 0.124315
vn 0.070464 -0.721649 0.688664
vn -0.182960 -0.982663 0.029970
vn -0.104034 0.407104 0.907438
vn 0.070464 -0.721649 0.688664
vn -0.104034 0.407104 0.907438
vn -0.976123 -0.153641 0.153553
vn 0.388265 -0.913912 0.118386
vn 0.421576 -0.351590 0.835858
vn 0.032185 0.398080 0.916786
vn -0.582373 0.496996 0.643302
vn 0.183584 -0.004863 0.982992
vn 0.420265 0.535120 0.732820
vn 0.385637 -0.824509 0.414089
vn 0.385637 -0.824509 0.414089
vn 0.418166 -0.644108 -0.640517
vn -0.029790 -0.782487 -0.621954
vn 0.102509 -0.130341 -0.986156
vn 0.340340 0.661649 -0.668124
vn 0.248380 0.795369 -0.552897
vn 0.428925 0.903307 0.007698
vn 0.248380 0.795369 -0.552897
vn -0.042262 0.994296 0.097922
vn 0.312811 0.860882 0.401287
vn 0.964317 0.021461 -0.263879
vn 0.418166 -0.644108 -0.640517
vn 0.418166 -0.644108 -0.640517
vn 0.418166 -0.644108 -0.640517
vn -0.247639 -0.307173 -0.918869
vn 0.353224 0.089221 -0.931275
vn -0.182960 -0.982663 0.029970
vn 0.101057 -0.567973 -0.816819
vn 0.101057 -0.567973 -0.816819
vn -0.872513 -0.472511 0.124315
vn -0.905757 -0.381874 -0.183786
vn -0.278166 0.828022 0.486829
vn 0.169569 0.922164 -0.347649
vn 0.292470 0.932447 0.212142
vn 0.169569 0.922164 -0.347649
vn 0.353224 0.089221 -0.931275
vn -0.671612 0.730746 0.122261
vn 0.144254 0.716666 -0.682335
vn 0.292470 0.932447 0.212142
vn -0.976123 -0.153641 0.153553
vn -0.872513 -0.472511 0.124315
vn -0.852610 -0.411341 0.322266
vn -0.945536 -0.314227 0.084991
vn -0.945536 -0.314227 0.084991
vn -0.872513 -0.472511 0.124315
vn 0.353224 0.089221 -0.931275
vn -0.671612 0.730746 0.122261
vn -0.993406 0.106994 -0.041182
vn -0.671612 0.730746 0.122261
vn -0.963643 -0.181475 -0.196110
vn -0.963643 -0.181475 -0.196110
vn -0.193810 0.108220 -0.975052
vn 0.101057 -0.567973 -0.816819
vn -0.905757 -0.381874 -0.183786
vn 0.385637 -0.824509 0.414089
vn -0.029790 -0.782487 -0.621954
vn -0.033155 -0.879982 -0.473849
vn -0.116184 -0.281042 -0.952637
vn -0.029790 -0.782487 -0.621954
vn -0.033155 -0.879982 -0.473849
vn -0.039850 0.370825 -0.927848
vn 0.340340 0.661648 -0.668124
vn 0.100471 0.912968 -0.395467
vn 0.340340 0.661649 -0.668124
vn -0.116184 -0.281042 -0.952637
vn 0.132033 0.962771 -0.235881
vn 0.100471 0.912968 -0.395467
vn 0.100471 0.912968 -0.395467
vn 0.140705 0.426935 -0.893269
vn 0.034073 0.866089 0.498728
vn 0.132033 0.962771 -0.235881
vn -0.053903 0.964804 0.257387
vn 0.032185 0.398080 0.916786
vn 0.034073 0.866089 0.498728
vn 0.034073 0.866089 0.498728
vn 0.100471 0.912968 -0.395467
vn -0.053903 0.964804 0.257387
vn 0.428925 0.903307 0.007698
vn 0.535005 0.306497 0.787292
vn 0.428925 0.903307 0.007698
vn 0.312811 0.860882 0.401287
vn 0.535005 0.306497 0.787292
vn 0.484408 0.335886 0.807793
vn 0.075364 0.489664 0.868648
vn 0.484408 0.335886 0.807793
vn 0.435815 -0.232166 0.869577
vn 0.235476 0.403699 0.884069
vn 0.385637 -0.824509 0.414089
vn 0.235476 0.403699 0.884069
vn 0.435815 -0.232166 0.869578
vn 0.964317 0.021461 -0.263879
vn -0.042262 0.994296 0.097922
vn 0.248380 0.795369 -0.552897
vn 0.169569 0.922164 -0.347649
vn 0.312811 0.860882 0.401287
vn 0.169569 0.922164 -0.347649
vn 0.535005 0.306497 0.787292
vn 0.312811 0.860882 0.401287
vn 0.484408 0.335886 0.807793
vn 0.535005 0.306497 0.787292
vn 0.420265 0.535119 0.732820
vn 0.435815 -0.232166 0.869578
vn -0.234070 -0.663837 -0.710304
vn 0.086141 -0.473892 -0.876360
vn -0.234070 -0.663837 -0.710304
vn 0.086141 -0.473892 -0.876360
vn 0.419276 -0.903749 -0.086285
vn 0.353224 0.089221 -0.931275
vn -0.940199 0.014696 0.340309
vn -0.278166 0.828022 0.486829
vn -0.274606 0.710215 0.648218
vn 0.183584 -0.004863 0.982992
vn -0.278166 0.828023 0.486829
vn -0.104034 0.407104 0.907438
vn -0.104034 0.407104 0.907438
vn 0.183584 -0.004863 0.982992
vn -0.013976 0.986014 0.166073
vn 0.169569 0.922164 -0.347649
vn -0.278166 0.828023 0.486829
vn -0.582373 0.496996 0.643302
vn -0.940199 0.014696 0.340309
vn 0.183584 -0.004863 0.982992
vn -0.317735 0.211320 -0.924331
vn -0.384353 0.851846 -0.355852
vn 0.294426 0.574014 -0.764082
vn 0.182214 0.967263 -0.176634
vn -0.314093 0.768173 0.557903
vn 0.233883 0.846921 0.477519
vn 0.312624 0.258616 0.913993
vn -0.538711 -0.227882 0.811086
vn 0.312624 0.258616 0.913993
vn 0.223434 -0.728712 0.647346
vn -0.460658 -0.884477 0.074128
vn 0.125350 -0.990590 -0.054953
vn -0.433170 -0.667827 -0.605285
vn 0.040185 -0.774020 -0.631885
vn -0.460658 -0.884477 0.074128
vn 0.336226 -0.163958 -0.927400
vn 0.040185 -0.774020 -0.631885
vn -0.317735 0.211320 -0.924331
vn 0.294427 0.574014 -0.764082
vn 0.336226 -0.163958 -0.927400
vn -0.999998 0.000000 0.001811
vn -0.314093 0.768173 0.557903
vn -0.314093 0.768173 0.557903
vn -0.433170 -0.667827 -0.605285
vn 0.155564 0.688111 -0.708733
vn 0.140384 0.983538 -0.113778
vn 0.057679 0.726163 -0.685099
vn -0.019087 0.984013 -0.177070
vn 0.140384 0.983538 -0.113778
vn 0.080682 0.706179 0.703422
vn -0.018680 0.764618 0.644213
vn 0.071948 0.049027 0.996203
vn -0.013081 0.271244 0.962422
vn 0.172441 -0.595351 0.784743
vn 0.005624 -0.697297 0.716760
vn 0.093431 -0.981816 0.165253
vn 0.005624 -0.697297 0.716760
vn 0.050928 -0.977674 -0.203863
vn 0.093431 -0.981816 0.165253
vn 0.177987 -0.439144 -0.880610
vn 0.050928 -0.977674 -0.203863
vn 0.138776 -0.261249 -0.955244
vn 0.127191 0.298089 -0.946026
vn 0.177987 -0.439144 -0.880610
vn 0.155564 0.688111 -0.708733
vn 0.057679 0.726163 -0.685099
vn -0.068798 0.708105 -0.702748
vn 0.075363 0.872689 0.482426
vn -0.018680 0.764618 0.644213
vn 0.075363 0.872689 0.482426
vn -0.013081 0.271244 0.962422
vn 0.139970 -0.006455 0.990135
vn -0.013081 0.271244 0.962422
vn 0.084346 -0.854702 0.512222
vn 0.005624 -0.697297 0.716760
vn 0.084346 -0.854702 0.512222
vn 0.035011 -0.572586 -0.819097
vn 0.050928 -0.977674 -0.203863
vn 0.138776 -0.261249 -0.955244
vn 0.035011 -0.572586 -0.819097
vn 0.127191 0.298089 -0.946026
vn -0.053830 0.541814 -0.838773
vn 0.127191 0.298089 -0.946026
vn 0.057679 0.726163 -0.685099
vn 0.182214 0.967264 -0.176634
vn 0.155564 0.688111 -0.708734
vn 0.140384 0.983538 -0.113778
vn 0.182214 0.967263 -0.176634
vn 0.233883 0.846921 0.477519
vn 0.140384 0.983538 -0.113778
vn 0.233883 0.846921 0.477519
vn 0.223434 -0.728712 0.647346
vn 0.172441 -0.595351 0.784743
vn 0.312624 0.258616 0.913993
vn 0.071948 0.049027 0.996203
vn 0.223434 -0.728712 0.647346
vn 0.093431 -0.981816 0.165253
vn 0.172441 -0.595351 0.784743
vn 0.093431 -0.981816 0.165253
vn 0.040185 -0.774020 -0.631885
vn 0.125350 -0.990590 -0.054953
vn 0.125350 -0.990590 -0.054953
vn 0.040185 -0.774020 -0.631885
vn 0.177987 -0.439144 -0.880609
vn 0.336226 -0.163958 -0.927400
vn 0.294426 0.574014 -0.764082
vn 0.177987 -0.439144 -0.880610
vn 0.177987 -0.439144 -0.880610
vn 0.294426 0.574014 -0.764082
vt 0.496486 0.512246
vt 0.483241 0.384545
vt 0.589843 0.412987
vt 0.501048 0.573879
vt 0.578011 0.590345
vt 0.582481 0.488087
vt 0.494076 0.777791
vt 0.636027 0.988732
vt 0.433863 0.881356
vt 0.822052 0.870392
vt 0.699417 0.923016
vt 0.766587 0.833788
vt 0.387647 0.884364
vt 0.402157 0.858523
vt 0.218931 0.444380
vt 0.075054 0.344691
vt 0.219861 0.370205
vt 0.102934 0.315085
vt 0.722063 0.361545
vt 0.668252 0.370257
vt 0.631544 0.255578
vt 0.778510 0.435113
vt 0.675807 0.462928
vt 0.726967 0.382815
vt 0.666245 0.407220
vt 0.668281 0.546555
vt 0.809573 0.510630
vt 0.359909 0.460361
vt 0.346862 0.418364
vt 0.322271 0.616163
vt 0.248375 0.514619
vt 0.423245 0.589473
vt 0.589167 0.784958
vt 0.983770 0.622800
vt 0.952991 0.479245
vt 0.027959 0.410563
vt 0.647141 0.768973
vt 0.681465 0.792074
vt 0.732037 0.818767
vt 0.408765 0.696850
vt 0.422484 0.841040
vt 0.480440 0.365644
vt 0.211366 0.629385
vt 0.153810 0.535973
vt 0.566748 0.742350
vt 0.667063 0.715801
vt 0.738259 0.687379
vt 0.804513 0.541852
vt 0.803244 0.708778
vt 0.826087 0.557956
vt 0.882998 0.595491
vt 0.605906 0.411296
vt 0.593664 0.397890
vt 0.904131 0.448831
vt 0.851964 0.381384
vt 0.810340 0.310141
vt 0.775503 0.288137
vt 0.075488 0.471076
vt 0.086748 0.534149
vt 0.274193 0.270818
vt 0.694383 0.760725
vt 0.728210 0.758072
vt 0.783785 0.798436
vt 0.821119 0.815038
vt 0.303561 0.794225
vt 0.881914 0.726843
vt 0.334418 0.747237
vt 0.593414 0.462525
vt 0.193792 0.518633
vt 0.176639 0.487867
vt 0.284899 0.083322
vt 0.273623 0.069545
vt 0.288314 0.070843
vt 0.285335 0.050612
vt 0.233042 0.063891
vt 0.268774 0.020634
vt 0.245102 0.222715
vt 0.180092 0.176555
vt 0.264218 0.182501
vt 0.228763 0.117668
vt 0.278403 0.162876
vt 0.266936 0.108528
vt 0.300582 0.114372
vt 0.283526 0.090623
vt 0.295764 0.096126
vt 0.293205 0.085705
vt 0.268468 0.085859
vt 0.346417 0.054830
vt 0.356264 0.016835
vt 0.442042 0.035706
vt 0.424476 0.007063
vt 0.354279 0.273415
vt 0.358815 0.246924
vt 0.424834 0.279182
vt 0.463315 0.238087
vt 0.354454 0.199004
vt 0.462828 0.200421
vt 0.360839 0.174351
vt 0.463888 0.182752
vt 0.350835 0.143198
vt 0.413686 0.114912
vt 0.342048 0.097360
vt 0.442217 0.089667
vt 0.405039 0.059968
vt 0.607209 0.043485
vt 0.609413 0.015835
vt 0.607998 0.250544
vt 0.601393 0.198630
vt 0.600118 0.170164
vt 0.600824 0.120229
vt 0.604069 0.071079
f 1/1/1 2/2/2 3/3/3
f 4/4/4 1/1/1 5/5/5
f 5/5/5 1/1/6 6/6/7
f 7/7/8 8/8/9 9/9/10
f 9/10/10 10/11/11 11/12/12
f 9/9/13 12/13/14 13/14/15
f 10/11/11 9/10/13 8/8/9
f 14/15/16 15/16/17 16/17/18
f 16/17/18 15/16/17 17/18/19
f 18/19/20 19/20/21 20/21/22
f 21/22/23 22/23/24 23/24/25
f 23/24/25 22/23/24 24/25/26
f 25/26/27 22/23/24 26/27/28
f 27/28/29 14/15/16 28/29/30
f 29/30/31 30/31/32 31/32/33
f 31/32/33 30/31/32 27/28/29
f 31/32/33 4/4/4 7/7/8
f 7/7/8 32/33/34 8/8/35
f 33/34/36 26/27/28 34/35/37
f 14/15/16 35/36/38 15/16/17
f 8/8/35 36/37/39 37/38/40
f 8/8/41 37/38/40 38/39/42
f 10/11/43 38/39/42 11/12/12
f 39/40/44 29/30/31 31/32/33
f 9/9/45 40/41/46 7/7/8
f 31/32/33 1/1/47 4/4/4
f 2/2/2 1/1/48 27/28/29
f 27/28/29 1/1/49 31/32/33
f 28/29/30 41/42/50 27/28/29
f 27/28/51 41/42/50 2/2/52
f 14/15/53 27/28/54 30/31/32
f 28/29/30 14/15/55 16/17/56
f 7/7/8 4/4/57 5/5/5
f 29/30/58 39/40/44 33/43/36
f 13/14/15 40/41/46 9/9/59
f 33/43/36 30/31/32 29/30/31
f 42/44/60 30/31/61 33/43/62
f 7/7/63 39/40/44 31/32/33
f 7/7/64 5/5/65 43/45/66
f 44/46/67 25/26/27 45/47/68
f 45/47/68 25/26/27 46/48/69
f 47/49/70 45/47/68 46/48/69
f 46/48/71 48/50/72 47/49/70
f 48/50/72 49/51/73 47/49/70
f 32/33/34 36/37/39 8/8/74
f 25/26/27 44/46/67 5/5/75
f 5/5/5 44/46/67 43/45/66
f 6/6/7 22/23/24 5/5/76
f 5/5/77 22/23/24 25/26/27
f 50/52/78 22/23/79 3/3/3
f 2/2/80 41/42/50 3/3/81
f 3/3/82 41/42/83 51/53/84
f 52/54/85 26/27/86 35/55/38
f 35/55/87 26/27/88 21/22/23
f 22/23/89 21/22/23 26/27/28
f 35/55/87 21/22/23 15/56/90
f 15/56/90 21/22/91 23/24/25
f 20/21/22 17/57/19 18/19/20
f 14/15/53 52/58/85 35/36/92
f 33/43/36 34/59/37 42/44/60
f 16/17/93 17/18/19 20/60/22
f 28/29/30 16/17/93 20/60/22
f 41/42/94 28/29/95 20/60/22
f 19/20/21 51/53/84 20/21/96
f 20/21/97 51/53/84 41/42/98
f 24/25/26 22/23/99 50/52/78
f 17/57/19 15/56/100 18/19/20
f 18/19/101 15/56/102 23/24/25
f 24/25/26 19/20/21 23/24/25
f 23/24/25 19/20/21 18/19/101
f 51/53/84 19/20/103 50/52/78
f 50/52/78 19/20/104 24/25/105
f 3/3/106 51/53/107 50/52/78
f 7/7/108 43/45/109 32/33/110
f 44/46/67 36/37/111 43/45/112
f 43/45/112 36/37/111 32/33/113
f 36/37/111 44/46/67 53/61/114
f 53/61/114 44/46/67 45/47/115
f 54/62/116 53/61/114 45/47/115
f 47/49/70 54/62/116 45/47/117
f 37/38/40 36/37/118 53/61/114
f 38/39/119 37/38/40 54/62/120
f 54/62/121 37/38/122 53/61/114
f 11/12/123 38/39/124 55/63/125
f 55/63/125 38/39/119 54/62/120
f 9/10/126 11/12/127 12/64/14
f 12/64/14 11/12/128 55/63/125
f 55/63/125 54/62/129 47/49/70
f 12/64/14 55/63/130 47/49/131
f 13/14/15 12/13/14 56/65/132
f 12/64/14 47/49/133 49/51/73
f 49/51/134 56/66/132 12/64/14
f 13/14/15 56/65/135 57/67/136
f 57/67/136 40/41/46 13/14/137
f 57/67/138 39/40/139 40/41/140
f 7/7/141 40/41/142 39/40/143
f 8/8/144 38/39/119 10/11/11
f 46/48/69 25/26/27 26/27/28
f 48/50/145 46/48/146 26/27/147
f 33/34/36 49/51/148 48/50/145
f 48/50/145 26/27/149 33/34/62
f 56/66/150 49/51/151 33/34/36
f 57/67/152 56/65/153 33/43/154
f 33/43/154 39/40/155 57/67/136
f 6/6/156 1/1/49 58/68/157
f 58/68/157 22/23/24 6/6/158
f 58/68/159 1/1/160 3/3/81
f 3/3/3 22/23/161 58/68/159
f 59/69/162 52/58/163 60/70/164
f 60/70/164 30/31/165 59/69/162
f 60/70/164 52/58/166 14/15/167
f 14/15/168 30/31/169 60/70/164
f 34/35/170 26/27/171 52/54/172
f 42/44/173 34/59/170 52/58/163
f 52/58/85 59/69/162 42/44/60
f 59/69/174 30/31/175 42/44/60
f 61/71/176 62/72/177 63/73/178
f 63/73/178 62/72/177 64/74/179
f 62/72/177 65/75/180 64/74/179
f 64/74/179 65/75/180 66/76/181
f 66/77/181 65/78/180 67/79/182
f 65/78/180 68/80/183 67/79/182
f 67/79/184 68/80/183 69/81/185
f 68/80/183 70/82/186 69/81/185
f 69/81/185 70/82/186 71/83/187
f 72/84/188 73/85/189 70/82/186
f 70/82/190 73/85/189 71/83/187
f 61/71/176 74/86/191 72/84/188
f 72/84/188 74/86/191 73/85/192
f 61/71/193 63/73/194 74/86/195
f 62/72/177 61/71/176 75/87/196
f 65/75/197 62/72/177 75/87/196
f 68/80/183 65/75/198 75/87/196
f 70/82/186 68/80/183 75/87/196
f 72/84/199 70/82/186 75/87/196
f 61/71/176 72/84/188 75/87/196
f 76/88/200 77/89/201 78/90/202
f 78/90/202 77/89/201 79/91/203
f 77/92/204 80/93/205 79/94/203
f 79/94/203 80/93/205 81/95/206
f 82/96/207 83/97/208 80/93/205
f 80/93/205 83/97/208 81/95/206
f 84/98/209 85/99/210 82/96/207
f 82/96/207 85/99/210 83/97/208
f 86/100/211 85/99/212 84/98/209
f 86/100/211 87/101/213 85/99/210
f 86/100/214 88/102/215 87/101/213
f 87/101/216 88/102/215 89/103/217
f 89/103/217 88/102/215 90/104/218
f 88/102/219 76/88/200 90/104/218
f 90/104/218 76/88/220 78/90/202
f 78/90/221 79/91/203 91/105/222
f 91/105/222 79/91/203 92/106/223
f 79/94/203 81/95/206 92/107/223
f 81/95/224 83/97/208 92/107/223
f 92/107/225 83/97/226 93/108/227
f 83/97/228 85/99/212 93/108/227
f 93/108/227 85/99/212 94/109/229
f 85/99/230 87/101/213 94/109/229
f 94/109/231 87/101/213 95/110/232
f 87/101/233 89/103/234 95/110/232
f 89/103/217 90/104/218 95/110/235
f 95/110/232 90/104/236 96/111/237
f 90/104/238 78/90/239 96/111/237
f 96/111/237 78/90/221 91/105/222
f 63/73/194 64/74/240 76/88/220
f 76/88/241 64/74/240 77/89/242
f 64/74/243 66/76/244 77/89/201
f 77/92/245 66/77/246 80/93/205
f 66/77/181 67/79/184 80/93/205
f 80/93/205 67/79/182 82/96/207
f 69/81/247 84/98/248 67/79/249
f 67/79/249 84/98/209 82/96/250
f 69/81/251 86/100/252 84/98/253
f 71/83/187 86/100/254 69/81/251
f 73/85/255 88/102/215 71/83/256
f 71/83/257 88/102/219 86/100/254
f 73/85/258 74/86/191 88/102/259
f 74/86/260 63/73/261 88/102/262
f 88/102/263 63/73/264 76/88/200
